<?xml version="1.0" standalone="no"?>
<!DOCTYPE svg PUBLIC "-//W3C//DTD SVG 20010904//EN"
 "http://www.w3.org/TR/2001/REC-SVG-20010904/DTD/svg10.dtd">
<svg version="1.0" xmlns="http://www.w3.org/2000/svg"
 width="1024.000000pt" height="1024.000000pt" viewBox="0 0 1024.000000 1024.000000"
 preserveAspectRatio="xMidYMid meet">
<metadata>
Created by potrace 1.14, written by Peter Selinger 2001-2017
</metadata>
<g transform="translate(0.000000,1024.000000) scale(0.100000,-0.100000)"
fill="#000000" stroke="none">
<path d="M3105 8335 c-56 -19 -111 -84 -171 -201 -103 -197 -170 -399 -205
-614 -17 -102 -20 -156 -17 -295 l4 -170 -162 -160 c-205 -203 -378 -434 -467
-623 -47 -101 -29 -180 51 -221 48 -25 476 -121 537 -121 116 0 197 109 164
221 -21 68 -65 104 -169 136 l-90 28 34 51 c49 72 164 175 238 212 38 20 97
39 148 48 47 8 110 19 140 24 43 7 61 16 83 42 36 43 35 78 -9 168 -20 41 -47
118 -62 170 -22 81 -25 116 -26 240 0 103 5 169 18 227 21 101 73 256 113 339
l29 62 60 -25 c223 -90 504 -270 681 -435 44 -42 96 -84 114 -94 50 -26 178
-31 234 -10 54 21 112 83 121 131 6 36 -11 121 -27 131 -31 19 23 38 196 72
312 62 637 52 938 -29 64 -18 77 -24 71 -38 -35 -81 -38 -97 -25 -143 15 -52
60 -104 108 -124 39 -17 138 -18 196 -3 42 10 60 24 248 183 52 44 147 114
213 157 125 82 384 217 426 221 22 3 28 -6 63 -86 98 -227 138 -479 107 -676
-13 -79 -41 -170 -79 -253 -39 -86 -45 -118 -27 -160 21 -51 52 -67 153 -77
152 -16 247 -54 360 -147 43 -34 133 -151 133 -171 0 -6 -19 -16 -42 -22 -70
-18 -125 -40 -154 -62 -33 -27 -63 -92 -64 -138 0 -49 38 -120 79 -147 48 -32
102 -30 294 13 341 74 371 86 402 153 33 75 3 155 -132 354 -112 166 -179 244
-359 424 l-161 163 8 42 c13 71 10 291 -6 400 -31 203 -88 385 -180 573 -129
262 -194 305 -386 255 -207 -53 -468 -177 -699 -331 l-147 -99 -99 41 c-430
175 -952 205 -1419 83 -99 -25 -264 -83 -318 -111 -28 -14 -31 -13 -140 60
-245 164 -525 298 -752 358 -83 22 -116 23 -170 4z"/>
<path d="M4100 5865 c-107 -30 -192 -103 -238 -204 -21 -46 -26 -72 -26 -146
-1 -113 13 -159 72 -237 149 -196 448 -188 585 15 113 166 79 391 -77 508 -86
65 -217 91 -316 64z m14 -116 c38 -18 60 -71 46 -114 -14 -44 -44 -65 -90 -65
-72 0 -115 66 -86 134 21 51 75 69 130 45z"/>
<path d="M5855 5864 c-111 -27 -193 -95 -244 -203 -22 -48 -26 -70 -26 -151 0
-87 3 -101 32 -161 43 -86 119 -158 198 -188 50 -19 75 -22 150 -19 81 3 97 7
155 39 123 68 190 183 190 329 0 101 -26 172 -86 239 -57 64 -118 99 -202 116
-80 17 -90 17 -167 -1z m5 -119 c88 -46 52 -175 -48 -175 -33 0 -45 6 -66 31
-14 17 -26 43 -26 57 0 37 34 90 62 95 42 8 49 7 78 -8z"/>
<path d="M2025 5586 c-69 -30 -102 -100 -93 -197 9 -86 58 -133 158 -151 36
-6 69 -15 74 -19 5 -4 -18 -50 -51 -101 -75 -116 -106 -176 -134 -263 -19 -61
-21 -82 -16 -219 9 -280 103 -611 248 -872 73 -131 123 -162 226 -140 29 7 30
6 43 -51 42 -193 152 -407 299 -583 164 -197 312 -336 378 -356 45 -13 106 -3
142 23 23 18 105 129 114 156 2 8 13 7 35 -2 32 -13 32 -14 32 -85 1 -152 54
-315 151 -458 l38 -57 -334 -3 c-320 -3 -335 -4 -362 -24 -54 -40 -75 -83 -71
-142 5 -56 25 -91 72 -126 l27 -21 2047 -3 c1367 -2 2059 1 2082 7 20 6 51 26
69 45 71 73 47 202 -44 246 -39 19 -62 20 -363 20 -177 0 -322 3 -322 7 0 4 9
16 19 27 36 39 120 214 141 293 11 43 25 119 30 168 9 74 15 93 33 107 20 16
23 16 32 2 95 -153 130 -184 204 -184 73 0 120 31 250 165 165 171 249 280
348 450 48 82 116 248 133 327 l13 56 33 -10 c47 -12 108 6 149 45 83 80 232
445 284 697 75 360 51 503 -131 779 -26 41 -46 76 -44 79 3 2 35 11 72 18 127
27 174 75 174 177 0 78 -33 138 -93 168 -35 19 -52 21 -117 16 -68 -6 -389
-57 -457 -73 -52 -12 -105 -48 -123 -84 -50 -99 -32 -158 90 -284 243 -250
305 -418 255 -685 -29 -151 -122 -422 -144 -420 -3 0 -33 34 -66 76 -90 113
-149 153 -228 153 -83 -1 -167 -59 -189 -132 -21 -70 -4 -119 79 -229 l76
-101 -11 -81 c-14 -109 -55 -235 -104 -327 -42 -78 -122 -193 -157 -224 -19
-17 -20 -17 -40 28 -42 96 -133 246 -174 288 -110 114 -297 68 -337 -82 -15
-55 -1 -99 60 -190 27 -41 46 -77 42 -81 -4 -3 -37 -18 -73 -33 -89 -37 -158
-91 -186 -146 -14 -27 -30 -94 -43 -170 -23 -148 -42 -214 -82 -295 -65 -130
-198 -257 -296 -285 -20 -5 -83 -10 -139 -10 l-103 0 0 309 c0 204 -4 320 -11
342 -30 87 -102 138 -196 139 -67 0 -99 -13 -146 -58 -57 -55 -67 -103 -67
-318 0 -214 17 -194 -161 -193 -176 1 -159 -21 -159 193 0 220 -10 266 -71
320 -50 46 -76 56 -143 56 -74 0 -133 -32 -171 -94 l-30 -49 -3 -324 -3 -323
-112 0 c-89 0 -121 4 -154 20 -74 33 -131 78 -187 148 -96 119 -138 229 -172
442 -9 58 -24 121 -34 141 -27 53 -92 106 -183 150 -45 22 -81 44 -80 49 2 5
24 41 50 81 61 95 69 155 29 223 -70 120 -233 135 -324 31 -35 -39 -92 -134
-147 -245 -21 -41 -39 -77 -41 -79 -1 -2 -15 10 -29 25 -133 148 -234 375
-251 565 l-7 66 67 88 c77 100 86 119 86 181 0 163 -206 245 -329 130 -18 -17
-60 -64 -94 -105 -69 -84 -59 -89 -117 59 -47 117 -84 258 -101 382 -28 203
46 369 262 593 47 50 94 104 103 122 46 90 -8 208 -111 243 -39 13 -478 80
-522 80 -20 -1 -50 -7 -66 -14z"/>
<path d="M4967 5453 c-63 -24 -110 -63 -144 -121 -24 -41 -28 -57 -28 -127 0
-63 5 -89 22 -121 25 -47 95 -112 130 -120 13 -4 23 -10 23 -14 0 -19 -69 -97
-110 -125 -38 -25 -56 -30 -120 -33 -103 -4 -137 14 -165 88 -16 43 -28 59
-55 73 -59 30 -136 5 -160 -53 -30 -71 13 -220 92 -323 161 -211 359 -310 618
-309 261 1 471 108 618 316 65 92 102 185 102 255 0 49 -33 99 -78 118 -32 13
-42 14 -75 2 -38 -14 -50 -29 -82 -101 -21 -47 -65 -68 -142 -68 -92 0 -169
44 -226 130 -22 32 -21 37 6 44 41 10 109 78 133 133 57 128 10 266 -115 336
-68 39 -170 47 -244 20z m269 -864 c29 -12 51 -26 48 -31 -3 -5 -29 -21 -57
-35 -46 -25 -63 -28 -152 -28 -89 0 -106 3 -152 28 -28 14 -54 30 -57 35 -3 5
23 22 57 39 34 17 80 50 102 75 l40 44 59 -53 c32 -28 82 -62 112 -74z"/>
</g>
</svg>
