<?xml version="1.0" standalone="no"?>
<!DOCTYPE svg PUBLIC "-//W3C//DTD SVG 20010904//EN"
 "http://www.w3.org/TR/2001/REC-SVG-20010904/DTD/svg10.dtd">
<svg version="1.0" xmlns="http://www.w3.org/2000/svg"
 width="512.000000pt" height="512.000000pt" viewBox="0 0 512.000000 512.000000"
 preserveAspectRatio="xMidYMid meet">
<metadata>
Created by potrace 1.14, written by Peter Selinger 2001-2017
</metadata>
<g transform="translate(0.000000,512.000000) scale(0.100000,-0.100000)"
fill="#000000" stroke="none">
<path d="M25 5004 c-20 -15 -20 -28 -23 -1827 -1 -997 0 -1826 3 -1843 3 -20
14 -35 31 -42 18 -9 274 -12 954 -12 l930 0 0 -170 0 -170 -200 0 -200 0 -62
-38 c-35 -21 -70 -42 -78 -46 -8 -4 -24 -12 -35 -19 -11 -7 -116 -68 -233
-136 -117 -68 -219 -133 -227 -145 -12 -16 -15 -61 -15 -216 0 -192 0 -197 23
-218 l23 -22 1650 0 1651 0 21 23 c21 22 22 32 22 220 0 189 -1 197 -22 221
-13 14 -151 103 -308 198 l-285 173 -222 3 -223 3 0 170 0 169 928 0 c510 0
937 3 948 6 12 3 27 17 33 30 8 18 11 520 11 1842 -1 1605 -2 1819 -16 1837
-15 20 -28 20 -2537 22 -2239 2 -2524 1 -2542 -13z m4955 -1679 l0 -1555
-2420 0 -2420 0 0 1555 0 1555 2420 0 2420 0 0 -1555z m0 -1800 l0 -105 -2420
0 -2420 0 0 105 0 105 2420 0 2420 0 0 -105z m-1920 -415 l0 -170 -500 0 -500
0 0 170 0 170 500 0 500 0 0 -170z m752 -443 c119 -72 237 -144 262 -159 l46
-28 0 -120 0 -120 -1555 0 -1555 0 0 119 0 120 113 66 c61 36 119 70 127 75 8
5 31 18 50 29 19 10 85 49 145 85 l110 65 1020 1 1020 0 217 -133z"/>
<path d="M2395 4536 c-239 -142 -428 -252 -482 -282 -280 -153 -472 -269 -477
-288 -3 -11 -6 -302 -6 -646 0 -526 2 -629 14 -646 8 -11 50 -41 93 -66 43
-25 157 -92 253 -148 198 -116 223 -131 300 -173 30 -17 104 -59 164 -94 60
-35 110 -63 112 -63 1 0 41 -22 89 -50 48 -28 96 -50 108 -50 13 0 39 11 59
25 20 14 39 25 41 25 3 0 91 49 197 110 107 60 195 110 197 110 2 0 36 20 76
43 39 24 121 73 182 108 145 85 131 77 237 138 51 29 103 63 116 74 l22 20 0
642 0 642 -22 20 c-20 18 -83 55 -298 175 -75 42 -230 132 -517 299 -149 88
-282 159 -295 159 -12 -1 -86 -38 -163 -84z m247 -115 c46 -27 178 -103 293
-170 268 -155 238 -138 398 -228 75 -43 137 -81 137 -84 0 -4 -163 -102 -362
-219 -200 -116 -370 -216 -378 -221 -8 -5 -50 -29 -92 -53 l-77 -45 -130 77
c-72 42 -139 82 -149 87 -9 6 -40 23 -67 40 -28 16 -66 39 -86 50 -128 71
-479 281 -479 285 0 3 95 60 212 125 291 165 280 158 498 288 107 63 196 116
197 116 2 1 40 -21 85 -48z m-942 -679 c50 -28 103 -59 302 -176 112 -65 244
-142 293 -171 50 -29 113 -66 140 -82 l50 -29 3 -533 2 -533 -32 20 c-18 11
-121 69 -229 130 -107 61 -237 135 -289 166 -51 31 -94 56 -96 56 -1 0 -60 34
-129 75 -70 41 -131 75 -136 75 -5 0 -9 227 -9 540 l0 539 53 -31 c28 -17 63
-38 77 -46z m1848 -464 l-3 -532 -115 -68 c-63 -38 -121 -71 -129 -75 -8 -3
-53 -30 -100 -58 -48 -29 -107 -63 -131 -77 -45 -25 -419 -237 -433 -245 -4
-2 -6 235 -5 527 l3 532 450 264 c248 145 453 263 458 264 4 0 6 -239 5 -532z"/>
</g>
</svg>
